<?xml version="1.0" encoding="UTF-8" standalone="no"?>
<!-- Created with Inkscape (http://www.inkscape.org/) -->

<svg
   xmlns:dc="http://purl.org/dc/elements/1.1/"
   xmlns:cc="http://creativecommons.org/ns#"
   xmlns:rdf="http://www.w3.org/1999/02/22-rdf-syntax-ns#"
   xmlns:svg="http://www.w3.org/2000/svg"
   xmlns="http://www.w3.org/2000/svg"
   xmlns:sodipodi="http://sodipodi.sourceforge.net/DTD/sodipodi-0.dtd"
   xmlns:inkscape="http://www.inkscape.org/namespaces/inkscape"
   width="140"
   height="201.20401"
   id="svg3981"
   version="1.1"
   inkscape:version="0.48.5 r10040"
   inkscape:export-filename="C:\Users\Jules\Google Drive\Projets\Design\DessinTheo\theo4.png"
   inkscape:export-xdpi="192"
   inkscape:export-ydpi="192"
   sodipodi:docname="profil.svg">
  <defs
     id="defs3983" />
  <sodipodi:namedview
     id="base"
     pagecolor="#ffffff"
     bordercolor="#666666"
     borderopacity="1.0"
     inkscape:pageopacity="0.0"
     inkscape:pageshadow="2"
     inkscape:zoom="0.49497475"
     inkscape:cx="-99.214372"
     inkscape:cy="161.65392"
     inkscape:document-units="px"
     inkscape:current-layer="layer1"
     showgrid="false"
     fit-margin-top="0"
     fit-margin-left="0"
     fit-margin-right="0"
     fit-margin-bottom="0"
     inkscape:window-width="1366"
     inkscape:window-height="705"
     inkscape:window-x="-8"
     inkscape:window-y="-8"
     inkscape:window-maximized="1"
     width="524.41px" />
  <metadata
     id="metadata3986">
    <rdf:RDF>
      <cc:Work
         rdf:about="">
        <dc:format>image/svg+xml</dc:format>
        <dc:type
           rdf:resource="http://purl.org/dc/dcmitype/StillImage" />
        <dc:title></dc:title>
      </cc:Work>
    </rdf:RDF>
  </metadata>
  <g
     inkscape:label="Calque 1"
     inkscape:groupmode="layer"
     id="layer1"
     transform="translate(-270.32541,-370.52134)">
    <path
       style="fill:#000000"
       d="m 338.32356,571.36217 c -0.46471,-0.18665 -0.93746,-0.58046 -1.05054,-0.87515 -0.11308,-0.29468 -0.85909,-0.96825 -1.6578,-1.49681 -1.81383,-1.20033 -3.15016,-3.61815 -2.58423,-4.67561 1.0068,-1.88121 3.30566,-1.9834 4.96798,-0.22082 1.34918,1.43055 3.62356,2.09314 4.7564,1.38567 0.37372,-0.2334 0.95486,-0.42436 1.29141,-0.42436 0.60635,0 2.09286,-0.79168 4.60429,-2.45216 1.26141,-0.83401 4.46239,-1.62567 4.46239,-1.10364 0,0.92983 -2.44944,3.7314 -5.21938,5.96971 -1.09039,0.88112 -7.7616,4.28989 -8.32948,4.2561 -0.21785,-0.013 -0.77632,-0.17628 -1.24104,-0.36293 z m -0.36623,-12.68718 c -0.25422,-0.25422 -0.46222,-0.78157 -0.46222,-1.17189 0,-0.57474 -0.18004,-0.66449 -0.94687,-0.47203 -0.74105,0.18599 -1.19108,-0.007 -2.07041,-0.88589 -1.0749,-1.0749 -1.16972,-1.09967 -2.19018,-0.57196 -0.94699,0.4897 -1.13028,0.48795 -1.63384,-0.0156 -0.47261,-0.4726 -0.69636,-0.48765 -1.3418,-0.0902 -0.67729,0.41706 -0.85691,0.36867 -1.42966,-0.3851 -0.47545,-0.62573 -0.95294,-0.82964 -1.74151,-0.74374 -0.94918,0.10341 -1.13973,-0.0432 -1.50809,-1.16022 -0.46906,-1.42235 -1.48752,-1.98325 -2.47839,-1.36493 -0.48177,0.30063 -0.82165,0.28597 -1.30153,-0.0561 -0.35721,-0.25465 -1.0324,-0.62824 -1.50042,-0.8302 -1.30099,-0.56137 -2.68178,-2.237 -2.68178,-3.25439 0,-0.68621 -1.35669,-2.22674 -5.48501,-6.22825 -6.93689,-6.7238 -9.67555,-8.97632 -10.23427,-8.4176 -0.25381,0.25381 -0.43436,2.24634 -0.46779,5.16257 -0.0341,2.97798 -0.22718,5.07197 -0.51758,5.6146 -0.25473,0.47596 -0.46314,1.63863 -0.46314,2.58372 0,1.92898 -0.70661,3.58085 -1.77675,4.15358 -1.00278,0.53667 -1.39143,0.47946 -1.66974,-0.24579 -0.3849,-1.00304 -0.89632,-7.22853 -1.13974,-13.87408 -0.12361,-3.37468 -0.32058,-6.55413 -0.43771,-7.06544 -0.11714,-0.51132 -0.24949,-1.76637 -0.29412,-2.789 -0.0625,-1.43205 -0.51774,-2.67115 -1.98104,-5.39205 -1.40797,-2.61804 -2.01675,-4.24189 -2.35118,-6.27164 -0.4403,-2.67229 -1.2909,-4.1406 -2.39866,-4.1406 -0.60793,0 -3.30197,-2.66255 -4.0068,-3.95997 -0.31678,-0.58311 -1.00031,-1.95262 -1.51894,-3.04334 -0.51863,-1.09072 -1.42263,-2.59678 -2.00888,-3.34679 -0.58625,-0.75001 -1.76639,-2.53504 -2.62253,-3.96672 -0.85614,-1.43168 -2.05163,-3.18875 -2.65664,-3.90459 -4.51067,-5.33699 -4.82927,-6.8306 -3.87911,-18.18531 0.21777,-2.60253 1.14385,-4.18033 2.68855,-4.5806 0.66015,-0.17106 1.20027,-0.49697 1.20027,-0.72423 0,-0.22726 0.23684,-0.59899 0.52632,-0.82606 0.43297,-0.33964 0.45223,-0.76256 0.10854,-2.38447 -0.31984,-1.50942 -0.31208,-2.14085 0.0331,-2.6936 0.63013,-1.00902 0.94212,-3.28783 0.52265,-3.81759 -0.19248,-0.24308 -0.56531,-1.61335 -0.82851,-3.04504 -0.26319,-1.43168 0.0237,-3.52343 -0.27149,-4.64832 -0.29517,-1.1249 -0.62413,-2.42685 -0.73102,-2.89323 -0.1069,-0.46639 -0.49095,-1.00671 -0.85347,-1.20072 -1.20914,-0.64711 -2.07307,-4.94338 -1.06184,-5.28046 0.31107,-0.10369 0.31107,-0.6441 0,-2.09455 -0.74804,-3.48802 -0.56114,-5.07662 0.83631,-7.10815 1.40488,-2.04233 2.00813,-4.73166 1.34099,-5.97821 -0.47578,-0.88902 -0.76388,-2.64971 0.22461,-3.74198 0.45323,-0.50082 0.62167,0.34115 0.76757,-4.09939 0.10281,-3.12893 0.31847,-5.94685 0.47924,-6.26205 0.16077,-0.3152 0.3142,-1.49345 0.34096,-2.61834 0.0899,-3.77933 0.47857,-5.88275 1.20927,-6.54402 0.47341,-0.42843 0.70354,-1.13816 0.70354,-2.16972 0,-0.84316 0.26352,-1.90924 0.58559,-2.36906 0.32208,-0.45983 0.51732,-1.04089 0.43387,-1.29124 -0.20454,-0.61361 1.12622,-3.56006 2.04057,-4.51805 0.40501,-0.42434 0.98914,-1.14804 1.29807,-1.60822 0.68433,-1.0194 1.59175,-1.09508 1.59175,-0.13276 0,1.03521 1.11778,1.31775 1.7338,0.43826 0.28267,-0.40357 0.74214,-0.96196 1.02103,-1.24086 0.27889,-0.27889 0.83243,-1.21678 1.23009,-2.08419 0.39766,-0.86744 1.12795,-1.79129 1.62287,-2.05302 0.49492,-0.26174 1.73876,-0.91862 2.76409,-1.45973 1.8423,-0.97227 5.18265,-1.85686 6.75613,-1.78917 0.47574,0.0205 1.93662,-0.88498 3.53273,-2.18957 2.45348,-2.00536 2.89108,-2.2245 4.44296,-2.22491 1.05553,-2.8e-4 2.5237,-0.36776 3.79543,-0.94997 3.07625,-1.40835 5.768,-1.77671 6.94064,-0.94982 1.76146,1.24212 3.36829,1.59892 4.33832,0.96332 0.47729,-0.31273 0.86779,-0.80349 0.86779,-1.09058 0,-0.81312 2.1855,-1.71128 4.75328,-1.95342 1.28487,-0.12116 2.41638,-0.35013 2.51446,-0.50883 0.0981,-0.15869 -0.32566,-0.64741 -0.94164,-1.08603 -1.08261,-0.77088 -1.43449,-1.62416 -0.82509,-2.00079 0.62254,-0.38475 3.42302,1.57005 5.47224,2.40993 l 1.78567,1.47559 0.96489,-0.8975 c 1.60923,-1.49683 8.51307,-3.83322 11.83839,-4.00633 1.84211,-0.0959 6.20431,0.81245 6.89247,1.43523 0.64504,0.58376 0.63776,0.62755 -0.17988,1.0814 -0.46868,0.26016 -1.56333,0.47894 -2.43257,0.48619 -1.59923,0.0134 -1.91902,0.39013 -1.24051,1.46168 0.33944,0.53606 0.98551,0.4929 5.05213,-0.33747 3.23578,-0.66072 6.86895,-0.86817 7.73743,-0.44179 0.44852,0.2202 1.7558,0.66002 2.90507,0.97739 2.47022,0.68216 3.13278,1.28151 2.44955,2.21588 -0.44025,0.60207 -0.64553,0.60407 -3.40896,0.0333 -2.46428,-0.50901 -3.32087,-0.53561 -5.28916,-0.16422 -1.29176,0.24374 -2.34866,0.58837 -2.34866,0.76583 0,0.64293 1.8787,0.78441 3.07073,0.23125 1.10009,-0.5105 1.53696,-0.48965 4.98642,0.23787 2.07938,0.43857 3.90617,0.9229 4.05953,1.07629 0.15336,0.1534 0.58524,0.2789 0.95973,0.2789 0.37449,0 1.47614,0.56383 2.44812,1.25296 1.70088,1.20594 4.04136,2.12706 6.7874,2.67126 1.52085,0.3014 4.2583,1.67378 5.55922,2.78704 -0.59706,7.77779 -5.03404,-0.58925 3.45992,4.69021 0.97923,0.61816 1.59588,0.81959 1.68555,0.55058 0.43704,-1.31114 4.2003,0.31216 7.96384,3.43521 1.57386,1.30602 1.75849,1.91313 0.66849,2.19818 -0.58802,0.15376 -0.74373,0.50723 -0.74373,1.68816 0,1.16381 -1.2411,1.74003 -0.37187,2.60926 0.61358,0.61358 1.1156,1.23399 1.1156,1.37869 0,0.1447 0.60021,1.09855 1.3338,2.11966 1.29259,1.79918 2.39958,4.93042 2.26485,6.40635 -0.0417,0.45633 -1.2796,0.77638 -0.80966,0.86941 1.24828,0.24712 1.61553,0.78145 2.04657,2.97774 0.53713,2.73676 0.98684,4.09095 1.74063,5.24138 0.61486,0.9384 1.00752,0.90724 0.50468,0.59646 -0.14804,-0.0915 -0.22074,1.06386 -0.16155,2.56744 0.077,1.95656 0.32414,3.08895 0.86921,3.983 0.93343,1.53106 0.94921,1.80701 0.10339,1.80701 -1.87267,0 -0.77183,1.51555 0.42296,2.71034 0.39388,0.39387 -1.6213,1.53764 -1.6213,1.73009 0,0.63965 0.6451,0.76138 1.83559,0.34637 1.35105,-0.47098 1.82815,-0.22473 1.14932,0.59321 -0.25733,0.31006 -0.51977,1.27631 -0.58322,2.14722 -0.22405,3.07557 -0.66096,5.31182 -1.19951,6.13948 -0.29966,0.46055 -0.45077,1.19709 -0.3358,1.63676 0.18321,0.70061 -0.45484,2.59719 -2.54548,7.56625 -0.25815,0.61358 -0.59213,1.53395 -0.74218,2.04527 -0.15004,0.51132 -0.42779,1.12395 -0.61721,1.36139 -0.40152,0.5033 0.23164,1.03965 0.8073,0.68388 0.20452,-0.12641 0.37186,-0.0413 0.37186,0.18904 0,0.25471 0.30245,0.32288 0.77171,0.17394 0.67287,-0.21356 0.75621,-0.10961 0.65076,0.81164 -0.0688,0.60092 1.16606,1.01648 0.90169,0.9636 -0.25566,-0.0511 -0.46483,0.24343 -0.46483,0.65458 0,0.41115 -0.58569,1.58081 -1.30153,2.59924 -0.71584,1.01844 0.18593,2.02076 0.18593,2.22738 0,0.20663 -0.16348,0.37568 -0.36329,0.37568 -0.19981,0 -0.64676,0.43263 -0.99323,0.9614 -0.53696,0.81951 -0.55194,1.0129 -0.10154,1.31034 0.29062,0.19191 0.90385,0.2847 1.36274,0.20621 0.45888,-0.0785 1.02322,0.0849 1.25409,0.36306 0.33151,0.39945 0.25382,0.50578 -0.3695,0.50578 -0.98991,0 -0.99631,0.5855 -0.0238,2.18058 1.2641,2.07345 0.98606,8.02199 -0.58464,12.50811 -0.72168,2.06122 -3.17683,7.33026 -3.89866,8.36698 -0.70821,1.01717 -5.08652,9.59449 -6.2641,12.27169 -1.30055,2.95673 -4.84975,5.94972 -7.05542,5.94972 -0.87841,0 -0.89703,3.15852 -2.19566,6.19156 -0.80157,1.87211 -0.6004,1.58839 -1.08458,2.40832 -0.30708,0.52004 -0.90283,1.31962 -1.2637,2.23298 -0.29455,0.74552 0.17221,-0.32547 -0.81846,1.7043 -0.32724,0.67049 -1.63972,3.62119 -2.24927,5.20087 -0.42843,1.11031 -0.25584,1.43878 -0.81742,2.54872 -1.13554,2.24437 -2.09663,5.50253 -2.32735,6.365 -0.36275,1.35596 -0.12996,0.95118 -0.13544,1.94454 -0.01,1.73837 -0.50726,2.67721 -0.1259,4.03492 0.15799,0.56245 0.25393,1.16575 0.2132,1.34067 -0.0407,0.17492 0.11357,0.54411 0.34288,0.82041 0.48223,0.58104 0.16968,1.27868 -0.57285,1.27868 -0.28049,0 -0.56346,0.37651 -0.62881,0.83669 -0.13751,0.96819 -1.70205,1.38514 -2.2151,0.59034 -0.66018,-1.02274 -1.53198,-5.32187 -1.59018,-7.84171 -0.0177,-0.76698 -0.12624,-1.3945 -0.24117,-1.3945 -0.11494,0 -0.6095,0.54385 -1.09903,1.20856 -0.48952,0.66471 -1.02484,1.37591 -1.18957,1.58043 -0.16474,0.20453 -0.64453,0.83205 -1.0662,1.3945 -0.42167,0.56244 -1.02757,1.02263 -1.34644,1.02263 -0.46312,0 -0.53905,0.30361 -0.37737,1.50902 0.18046,1.34546 0.10444,1.54626 -0.70144,1.85266 -0.49711,0.189 -1.06071,0.75623 -1.25244,1.26052 -0.44468,1.16962 -2.02598,2.21438 -2.97567,1.96603 -0.60682,-0.15869 -0.77044,0.0422 -0.94901,1.16536 -0.33486,2.10616 -0.66429,2.46206 -2.39659,2.58924 -0.873,0.0641 -2.23318,0.52428 -3.02263,1.02264 -1.57005,0.99113 -2.78033,1.16647 -3.04574,0.44127 -0.11582,-0.31645 -0.43803,-0.18601 -1.00937,0.4086 -0.65009,0.67659 -1.08881,0.82353 -1.94653,0.65198 -0.88434,-0.17686 -1.25085,-0.0389 -1.82031,0.68501 -0.89514,1.13798 -2.04992,1.52223 -2.77249,0.92254 -0.42092,-0.34933 -0.66014,-0.35678 -0.9862,-0.0307 -0.52712,0.52712 -2.51292,0.57343 -2.51292,0.0586 0,-0.81876 -1.46948,-0.32449 -1.93475,0.65077 -0.5388,1.12938 -2.04168,1.54577 -2.80915,0.7783 z m 3.51273,-8.72972 c 0.12812,-0.33388 0.0626,-0.87979 -0.14555,-1.21313 -0.22236,-0.35605 -0.25151,-0.94934 -0.0707,-1.4382 0.29624,-0.8008 0.86015,-1.01785 2.31311,-0.8903 0.37388,0.0328 1.03864,-0.19167 1.47723,-0.49887 1.31973,-0.92438 2.34121,-0.70308 2.89195,0.62653 0.26998,0.6518 0.46827,1.4852 0.44064,1.85201 -0.0276,0.3668 0.13257,0.77989 0.356,0.91798 0.27862,0.1722 0.33857,-0.16598 0.19081,-1.07647 -0.25244,-1.55564 0.5214,-2.50674 2.03955,-2.50674 0.79354,0 0.9926,0.21659 1.19613,1.30153 0.41782,2.22715 0.9542,1.43012 0.9542,-1.41789 0,-2.53405 0.0758,-2.79203 1.11172,-3.78452 1.18715,-1.13735 1.42678,-1.11847 1.66748,0.13138 0.0841,0.43644 0.41348,1.16568 0.73207,1.62052 0.3186,0.45485 0.57926,1.19824 0.57926,1.65198 0,0.91689 0.64431,1.50038 1.10842,1.0038 0.16494,-0.17648 0.39604,-1.14505 0.51355,-2.15238 0.16375,-1.40375 0.50844,-2.14198 1.47586,-3.16086 1.43228,-1.50846 1.97354,-2.47985 3.43436,-6.1636 0.56775,-1.43168 1.3184,-3.0214 1.66813,-3.53272 1.02367,-1.49664 3.20808,-6.00942 3.69004,-7.62324 0.24431,-0.8181 0.69871,-2.24049 1.00975,-3.16087 1.48037,-4.38029 1.89989,-6.56026 2.53602,-13.17787 0.54604,-5.68049 0.95879,-6.88336 2.19865,-6.40759 1.36802,0.52496 0.37689,10.87925 -1.67898,17.5402 -0.37876,1.22716 -0.86599,3.40258 -1.08275,4.83426 -0.67096,4.43165 -2.41417,8.7472 -5.18225,12.82936 -0.62409,0.92037 -1.13542,1.96624 -1.1363,2.32416 -0.002,0.96927 0.98609,0.78658 1.74741,-0.32295 0.36747,-0.53555 1.71877,-2.0584 3.00289,-3.38413 1.28412,-1.32572 2.58899,-3.01884 2.89971,-3.76249 0.31071,-0.74365 0.87101,-1.68905 1.24512,-2.10089 0.37409,-0.41184 0.88977,-1.40257 1.14593,-2.20163 0.25617,-0.79905 1.95017,-4.50407 3.76446,-8.23337 1.81428,-3.7293 3.30242,-6.92434 3.30697,-7.10009 0.005,-0.17574 0.3355,-0.73789 0.73546,-1.2492 0.39996,-0.51132 0.73091,-1.21162 0.73546,-1.55622 0.005,-0.34461 0.18737,-1.09764 0.40628,-1.6734 0.2189,-0.57576 0.36276,-1.04683 0.31967,-1.04683 -0.0431,0 0.37932,-0.87524 0.93867,-1.94497 0.57262,-1.09513 1.14564,-2.96369 1.31143,-4.27646 0.16194,-1.28231 0.88159,-4.08854 1.59922,-6.23607 0.71763,-2.14752 1.49027,-4.99229 1.71697,-6.32172 1.81833,-10.66308 1.98562,-12.21027 2.33208,-21.5682 0.0522,-1.40962 -0.39809,-4.70739 -1.05605,-7.73427 -0.47985,-2.20753 -0.51165,-3.10404 -0.17039,-4.80332 0.50409,-2.51006 0.53694,-5.39598 0.0816,-7.17129 -0.1836,-0.71584 -0.43304,-2.49539 -0.55433,-3.95455 -0.20249,-2.43619 -0.15985,-2.66889 0.52181,-2.84714 0.60109,-0.15719 0.73973,-0.50145 0.72866,-1.80937 -0.0228,-2.69658 -0.18868,-6.59145 -1.00331,-7.48083 -0.41713,-0.45539 -1.13612,-1.58102 -1.59777,-2.50139 -0.46165,-0.92036 -0.46933,-2.17541 -0.92609,-2.78899 -0.45675,-0.61358 -1.03282,-2.03596 -1.28013,-3.16086 -1.13859,-5.17872 -1.55772,-5.9439 -2.0119,-3.67299 -0.18631,0.93154 -0.3332,1.07749 -0.74252,0.73778 -0.51763,-0.42959 -2.22737,-1.57722 -2.82764,-6.91923 -0.18385,-1.63621 -1.08854,-2.25728 -1.10141,-2.28917 -0.0129,-0.0319 -0.44377,0.13545 -0.95756,0.37186 -0.86187,0.39658 -0.1702,-0.18438 0.071,1.35951 0.41274,2.64221 0.35806,3.53272 -0.21691,3.53272 -0.30047,0 -0.81548,-0.86247 -1.21255,-2.03065 -0.92742,-2.72841 -1.2327,-2.95349 -2.09121,-1.54177 -0.7557,1.24265 -1.33122,1.05904 -1.62402,-0.5181 -0.19283,-1.03868 -1.16589,-0.93038 -1.42291,0.15837 -0.33635,1.42479 -1.11951,1.40113 -1.13851,-0.0344 -0.0238,-1.79644 -0.83521,-4.60795 -1.56152,-5.41051 -0.67957,-0.75091 -3.80078,-0.90182 -4.61836,-0.35487 -0.30728,0.20556 0.27772,0.57702 0.57591,1.20961 0.59693,1.26631 -1.29881,-0.25243 -1.72397,-0.88771 -1.70766,-2.55164 -3.08623,-2.22282 -7.47647,-4.44182 -2.73152,-1.38062 -5.54756,-2.8231 -6.25787,-3.20552 -1.39001,-0.74834 -6.81752,-1.51648 -8.23215,-1.16507 -1.15887,0.28788 -0.83117,1.08581 0.51022,1.24234 0.59246,0.0691 2.16928,0.95147 3.50404,1.96075 2.06776,1.56353 4.96774,3.1744 8.00482,4.4465 0.40905,0.17133 1.99879,0.66278 3.53273,1.0921 2.40511,0.67314 4.78317,0.71061 5.12191,0.93881 0.0559,0.0377 -0.004,1.08722 -0.13276,1.42329 -0.58729,1.53046 -7.56739,-0.33904 -14.6316,-3.91882 -2.33771,-1.18464 -4.33014,-2.07414 -4.42761,-1.97667 -0.50618,0.50618 1.45567,3.44881 3.49018,5.235 1.26246,1.10838 2.38551,2.01524 2.49567,2.01524 0.11016,0 1.07062,0.58569 2.13435,1.30153 1.06374,0.71584 2.09159,1.30153 2.28411,1.30153 0.19253,0 0.71957,0.34874 1.1712,0.77499 l 0.82116,0.775 -1.85934,-0.26942 c -3.47971,-0.50422 -6.8876,-2.45857 -10.83922,-6.21605 -1.4339,-1.36345 -1.55961,-1.41317 -1.78418,-0.7056 -0.35536,1.11965 1.34671,4.20504 3.19022,5.78302 0.86163,0.73752 1.4709,1.43665 1.35394,1.55361 -0.42686,0.42685 -3.28138,-0.63249 -4.21201,-1.56311 -1.32774,-1.32774 -3.4765,-5.93823 -3.23676,-6.94494 0.38812,-1.6298 -0.89911,0.21497 -1.72585,2.47337 -1.03529,2.82807 -1.8288,4.33913 -2.27863,4.33913 -0.19927,0 -0.36321,-0.29285 -0.36431,-0.65077 -0.002,-0.62094 1.91296,-5.88903 2.63393,-7.24633 0.18864,-0.35514 0.34299,-0.899 0.34299,-1.20856 0,-1.24587 -0.62177,-0.38991 -1.82646,2.51441 -1.44565,3.4852 -2.24007,4.67794 -2.95665,4.43908 -0.27451,-0.0915 -1.44419,0.74946 -2.59928,1.86881 -2.72082,2.63661 -3.69083,3.25954 -5.06488,3.25259 -2.06604,-0.0105 -2.31628,-0.56372 -0.7141,-1.57883 2.38696,-1.51235 8.06148,-7.71213 7.05873,-7.71213 -0.084,0 -1.75151,0.77292 -3.7055,1.71759 -4.11965,1.99169 -6.55968,2.44769 -7.67866,1.43503 -1.12089,-1.0144 -0.89763,-1.27128 1.03174,-1.18717 1.59088,0.0693 2.32053,-0.23388 7.34436,-3.05222 6.28894,-3.52807 7.25137,-4.25616 7.25137,-5.48569 0,-0.84608 -0.0787,-0.86484 -3.62569,-0.86486 l -3.62568,-2e-5 -1.18215,1.39451 c -1.00104,1.18087 -1.2859,1.32988 -1.85933,0.97267 -2.82037,0.47918 -0.5952,-0.15759 -2.95948,0.5042 -0.20231,0.77365 -1.51183,-0.21872 -4.69813,0.28876 -0.79222,0.12618 -1.96998,0.72166 -2.70675,1.36856 -1.17862,1.03484 -1.36597,1.09143 -1.94434,0.58728 -0.57013,-0.49696 -1.5869,-0.48927 -3.24311,0.0704 -1.67001,0.56433 -1.96026,0.83396 -2.85067,2.64819 -1.07981,2.20015 -2.90777,2.68864 -3.27342,1.13973 -0.18525,-0.78474 1.103,-0.60498 -0.35012,1.65829 -1.06148,1.65327 -3.18067,2.35722 -3.29908,3.40783 -0.13847,1.22844 -0.325,1.58599 -0.78225,1.49936 -0.41716,-0.079 -0.63532,-0.59515 -0.71477,-1.69097 -0.0629,-0.86747 -0.25569,-0.83348 -0.42845,-0.83348 -0.40809,0 -1.1306,2.08185 -1.1306,3.25773 0,0.83897 -0.10526,0.89581 -1.25838,0.67948 -1.60971,-0.30198 -1.00671,1.52268 -1.18252,6.10315 -0.16745,4.36223 -0.52255,3.49624 -1.52835,3.64458 -0.71948,0.10611 -0.74135,0.004 -0.42694,-2.00141 0.34345,-2.19015 0.20555,-2.80738 -0.47515,-2.12668 -0.25332,0.25332 -0.31644,1.45328 -0.17473,3.32201 0.41177,5.42978 -0.40154,6.02476 -1.64469,7.70405 -0.62828,0.8487 -0.98214,2.33215 -1.69535,3.29655 -1.36983,1.85225 -0.53867,4.23711 -0.53867,7.36247 0,1.02124 -0.20997,1.9373 -0.49904,2.17721 -0.62358,0.51752 -0.98842,0.17759 -0.98842,-0.92093 0,-1.34066 -0.63493,-1.37477 -0.91463,-0.0491 -0.44359,2.10244 -0.65434,4.7375 -0.37891,4.7375 0.14613,0 0.8544,-0.5169 1.57394,-1.14866 1.01669,-0.89267 1.37857,-1.03769 1.62382,-0.65076 0.47153,0.74391 0.39227,1.92581 -0.21036,3.13678 -0.82426,1.65635 -2.90058,8.04501 -2.47648,8.30711 1.0704,0.66155 0.71817,8.69452 -0.43165,9.84434 -0.30353,0.30352 -0.64049,1.69188 -0.78313,3.22666 -0.34799,3.74428 -0.57743,4.54521 -1.16285,4.05935 -1.14274,-0.94839 -0.96747,1.6364 0.47906,7.06495 0.40875,1.53394 0.85346,3.45835 0.98825,4.27645 0.13479,0.8181 0.73819,3.02574 1.34087,4.90585 0.60269,1.88011 1.0958,3.94665 1.0958,4.59232 0,0.64566 0.6413,2.78886 1.42511,4.76266 0.78381,1.9738 1.72606,5.01111 2.09388,6.74958 1.0875,5.14008 2.70886,11.39952 3.1945,12.33274 0.24857,0.47767 1.34981,1.75411 2.44722,2.83653 1.09739,1.08242 1.99527,2.29776 1.99527,2.70075 0,0.91504 7.31585,8.19643 11.13833,11.08587 1.52426,1.15219 3.43457,2.70345 4.24515,3.44726 l 1.47379,1.35236 0.96097,-0.89142 c 0.52853,-0.49028 1.19739,-0.8008 1.48634,-0.69004 0.28896,0.11076 1.00248,-0.2557 1.5856,-0.81436 0.92474,-0.88597 1.12818,-0.94684 1.59215,-0.4764 0.29257,0.29665 0.58309,1.41785 0.6456,2.49158 0.11441,1.96517 0.49912,2.50681 0.92448,1.3016 0.33367,-0.94544 1.65591,-2.32416 2.22893,-2.32416 0.27114,0 0.51229,0.29284 0.53588,0.65076 0.05,0.75843 0.0803,0.93401 0.48121,2.78584 0.25586,1.18184 0.42174,1.36109 1.10171,1.19043 0.63563,-0.15953 0.88863,0.0326 1.22843,0.93282 0.30298,0.80268 0.67314,1.13373 1.26766,1.13373 0.46184,0 1.16081,0.29058 1.55325,0.64574 0.69514,0.62909 0.71069,0.59926 0.60269,-1.15698 -0.11309,-1.83905 0.52206,-2.83555 1.80731,-2.83555 0.45935,0 1.50827,1.96544 1.78611,3.34679 0.0617,0.30679 0.125,0.59203 0.14065,0.63386 0.0156,0.0418 0.43919,-0.33468 0.94121,-0.8367 0.91532,-0.91532 2.39342,-1.23763 2.48051,-0.54089 0.0256,0.20452 0.0804,0.49737 0.1218,0.65076 0.3566,1.32054 0.70835,3.31687 0.63225,3.58821 -0.31526,1.12401 0.90419,1.80273 1.31509,0.73195 z m -3.46224,-8.76254 c -0.16455,-0.26624 -0.41394,-1.45738 -0.55421,-2.64699 -0.25519,-2.16434 -0.65803,-3.08095 -0.97006,-2.20727 -0.32029,0.89682 -1.50958,0.4911 -1.90764,-0.65076 -0.26052,-0.74731 -0.63904,-1.1156 -1.14662,-1.1156 -0.5885,0 -0.8525,-0.37638 -1.1821,-1.68533 -0.45494,-1.80675 -1.45226,-2.77705 -2.85438,-2.77705 -1.0284,0 -2.18106,-0.55013 -3.31479,-1.58205 l -0.81891,-0.74539 0.95602,-1.25341 c 1.12154,-1.47041 2.07558,-1.58604 3.20966,-0.389 1.04182,1.09966 2.00787,1.48924 3.45837,1.39467 0.7577,-0.0494 1.52133,0.23449 2.23119,0.8295 1.41301,1.18439 3.06026,0.95805 5.26271,-0.72312 1.56873,-1.19744 3.17259,-1.61113 3.59521,-0.92732 0.10964,0.1774 0.97077,0.40949 1.91362,0.51576 2.60696,0.29385 2.82207,0.78467 1.082,2.46874 -2.52933,2.44793 -3.52293,3.81479 -3.52293,4.84637 0,1.36929 -0.62429,1.91396 -1.71739,1.49837 -1.46942,-0.55867 -1.93677,-0.0916 -2.1872,2.18595 -0.12744,1.15898 -0.26324,2.34437 -0.30178,2.63421 -0.0955,0.71803 -0.86361,0.92381 -1.23077,0.32972 z m -14.90111,-24.40997 c 2.3034,0.55503 6.93391,2.47573 10.00154,2.5566 10.16729,0.26805 15.41305,0.15492 17.12108,-0.36922 1.37532,-0.42205 1.86287,-0.4427 2.21188,-0.0937 0.349,0.349 0.17478,0.72925 -0.79038,1.72504 -2.04592,2.11087 -2.33774,2.15423 -13.55054,2.01339 l -8.73804,-0.1284 -3.33104,-1.24905 c -0.73964,-0.27734 -4.01981,-2.11589 -3.00527,-3.99286 m -6.43179,-7.92838 c -0.62184,0.21889 -0.74267,0.31246 -1.21342,0.70314 -0.75157,0.62374 -0.77289,7.09033 -0.0337,10.23288 0.28823,1.22548 0.43664,2.31319 0.32978,2.41714 -0.10686,0.10395 -0.67998,-0.39037 -1.27361,-1.09848 -0.98077,-1.16993 -1.07933,-1.21163 -1.07933,-0.45667 0,0.96915 1.84782,5.18146 2.95511,6.73651 0.77571,1.08938 1.04467,3.00275 0.4221,3.00275 -0.1878,0 -0.56432,0.0807 -0.8367,0.17933 -0.27239,0.0986 -0.84585,-0.11054 -1.27436,-0.46483 -0.83549,-0.69079 -3.70844,-5.66435 -3.27197,-5.66435 0.14397,0 0.0162,-0.29284 -0.2839,-0.65077 -0.48416,-0.57742 -0.86742,-1.41757 -2.24768,-4.92722 -0.20109,-0.51132 -0.37617,-1.01334 -0.38905,-1.1156 -0.0129,-0.10226 -0.25067,-0.72979 -0.52841,-1.3945 -0.27773,-0.66471 -0.42647,-1.20856 -0.33054,-1.20856 0.0959,0 -0.0564,-0.65423 -0.33852,-1.45384 -0.28212,-0.79961 -0.44025,-1.52654 -0.3514,-1.61539 0.0889,-0.0889 -0.0785,-0.84187 -0.37186,-1.67339 -0.29338,-0.83152 -0.45782,-1.58744 -0.36543,-1.67983 0.0924,-0.0924 -0.009,-0.63467 -0.22632,-1.20506 -0.21687,-0.5704 -0.46794,-2.63811 -0.55793,-4.59491 -0.12624,-2.74468 -0.0366,-3.7518 0.39246,-4.40654 1.21401,-1.85281 2.39828,-0.47246 2.39828,2.79536 0,2.14091 1.5062,10.11495 1.91059,10.11495 0.45863,0 1.03714,-1.28821 1.28104,-2.85257 0.25138,-1.61241 1.44749,-3.3569 3.33347,-4.86172 0.85085,-0.67889 1.28406,-1.33938 1.28407,-1.95773 1e-5,-1.18885 1.29923,-2.10311 2.07441,-1.45977 0.29076,0.24132 0.52866,0.66927 0.52866,0.95102 0,0.75422 0.89997,0.62316 1.68614,-0.24555 0.50988,-0.56341 0.95396,-0.69893 1.73103,-0.52826 1.00715,0.22121 1.04521,0.17642 1.04521,-1.2298 0,-0.94954 0.2412,-1.67766 0.69042,-2.08419 0.86613,-0.78383 1.23549,-0.37824 1.90328,2.08997 0.53611,1.98152 1.12497,2.3332 1.12497,0.67185 0,-0.70948 0.29074,-1.29815 0.82647,-1.67339 1.03662,-0.72607 1.40472,-0.7316 1.40472,-0.0211 0,0.30679 0.25101,0.5578 0.5578,0.5578 0.32705,0 0.56269,-0.34613 0.56962,-0.8367 0.007,-0.46018 0.24695,-1.14707 0.53432,-1.52641 0.47573,-0.62801 0.61935,-0.6414 1.6051,-0.14964 0.90927,0.4536 1.19171,0.46032 1.76387,0.0419 0.57817,-0.42277 0.78233,-0.40667 1.34923,0.10636 0.36738,0.33248 0.60293,0.70975 0.52343,0.83838 -0.0795,0.12862 0.0781,0.64995 0.35031,1.15849 l 0.49485,0.92463 0.23977,-0.92929 c 0.13519,-0.52395 0.87832,-1.32686 1.70372,-1.84075 0.80517,-0.5013 1.46395,-1.10634 1.46395,-1.34453 0,-0.67761 -4.97363,-0.89889 -7.17164,-0.31907 -2.01895,0.53259 -2.58075,0.38366 -3.83436,-1.01649 -0.70177,-0.78381 -0.75481,-1.1526 -0.53066,-3.69011 l 0.24904,-2.81927 2.38999,-2.41888 c 1.31449,-1.33038 2.71525,-2.848 3.1128,-3.37249 0.69023,-0.91062 0.76096,-0.92595 1.56874,-0.33985 0.46526,0.33758 0.85118,0.82814 0.85761,1.09013 0.006,0.26199 -1.14169,2.18639 -2.55137,4.27645 -2.897,4.29523 -3.27192,5.16915 -2.49445,5.8144 0.4358,0.36168 0.79455,0.19603 1.89965,-0.87716 1.9659,-1.90915 3.50872,-1.84684 5.39614,0.21796 1.09735,1.20049 1.56035,1.47336 2.09526,1.23486 0.37765,-0.16839 0.98658,-0.33732 1.35317,-0.3754 0.97378,-0.10117 2.38764,-1.56293 2.61981,-2.70857 0.73923,-3.64783 1.02544,-4.17268 2.11939,-3.88661 0.58644,0.15336 0.73005,0.51391 0.73005,1.83289 0,2.08719 0.88653,4.23087 1.85436,4.48396 0.41178,0.10768 0.7487,0.34361 0.7487,0.52428 0,0.62279 0.98801,0.32631 1.80278,-0.54097 l 0.81681,-0.86946 -1.69818,-3.07009 c -1.29588,-2.3428 -1.60049,-3.18779 -1.28581,-3.56695 0.39657,-0.47785 1.44555,-0.47196 2.22945,0.0125 0.71834,0.44396 3.08706,4.46815 3.37457,5.73301 0.20575,0.90515 0.11919,1.60517 -0.29888,2.41713 -0.71062,1.38013 -2.34322,2.85684 -2.82752,2.55753 -0.19266,-0.11908 -1.45814,-0.26221 -2.81218,-0.31808 -1.35404,-0.0559 -3.01983,-0.22099 -3.70175,-0.36693 -0.96384,-0.20628 -1.47789,-0.0894 -2.3091,0.52518 -0.58809,0.43478 -1.58932,0.79052 -2.22496,0.79052 -1.02486,0 -1.12734,0.0947 -0.90512,0.8367 0.13783,0.46018 0.58175,1.09921 0.98648,1.42005 0.67609,0.53595 0.72576,0.9613 0.61117,5.23378 -0.10039,3.74286 -0.24655,4.77202 -0.74893,5.27352 -0.81661,0.81517 -1.14042,0.78602 -1.72849,-0.15562 -0.44799,-0.71736 -0.53795,-0.73202 -1.14136,-0.18593 -0.36027,0.32603 -0.96575,0.59279 -1.34552,0.59279 -0.37976,0 -1.07341,0.35975 -1.54144,0.79944 -0.89136,0.83739 -1.02931,0.735 -1.32768,-0.98537 -0.12999,-0.74952 -0.51902,-0.81628 -2.05278,-0.3523 -0.75491,0.22837 -0.8367,0.12771 -0.8367,-1.02981 0,-1.75472 -0.29281,-1.91138 -1.5676,-0.83871 -1.23219,1.03681 -1.77919,1.16062 -1.77919,0.40269 0,-0.28413 -0.31595,-0.90679 -0.70212,-1.38368 l -0.70212,-0.86709 -0.70727,1.47665 c -0.52729,1.1009 -0.9071,1.45576 -1.49255,1.39454 -0.4319,-0.0452 -0.98955,0.16402 -1.23921,0.46483 -0.64323,0.77505 -1.47845,0.67803 -1.47845,-0.17172 0,-0.75203 -0.84316,-1.18867 -1.95641,-1.01315 -0.36018,0.0568 -1.19015,0.96161 -1.93291,1.30241 m 1.54937,4.46654 c -0.64624,-1.07229 -0.51909,-0.71952 0.1147,-1.06221 1.36031,-0.73553 1.10631,-0.31121 2.62495,0.21742 1.51864,0.52863 4.42526,1.10274 5.55016,1.27579 7.25515,1.11613 8.23894,1.16738 13.87325,0.72279 12.26225,-0.96757 14.38045,-1.41584 18.0712,-1.82279 2.08541,-0.22994 4.40615,-0.77465 3.92667,10e-4 -0.51498,0.83326 -4.94285,2.282 -7.53661,2.98805 -3.75493,1.02213 -6.6458,1.38612 -14.92412,1.87912 -6.04469,0.35998 -7.00108,-0.19612 -8.77152,-0.19541 -2.10391,7.4e-4 -3.01619,-0.13045 -5.3351,-0.66419 m 35.65159,5.62367 c 0,-0.21268 0.3152,-1.00754 0.70045,-1.76638 2.06231,-4.06217 2.46225,-7.45579 1.20344,-10.21148 -0.61814,-1.35318 -1.00477,-1.76636 -1.65287,-1.76636 -0.4653,0 -1.02884,-0.18285 -1.25232,-0.40632 -0.29384,-0.29384 -0.61699,-0.29356 -1.1674,0.001 -0.53219,0.28482 -0.83415,0.2891 -1.00402,0.0142 -0.16074,-0.26009 -0.56241,-0.18375 -1.1872,0.22563 -0.62185,0.40745 -1.36666,0.55015 -2.18141,0.41794 -0.68043,-0.11042 -2.33745,-0.0449 -3.68228,0.14551 -2.00159,0.28346 -2.60443,0.24191 -3.32326,-0.22909 -0.85101,-0.55761 -0.89941,-0.53179 -1.56777,0.83642 -0.37931,0.77648 -0.98249,1.46589 -1.34042,1.53201 -0.5269,0.0974 -0.6513,-0.15037 -0.65357,-1.30153 -10e-4,-0.78196 -0.17488,-2.48216 -0.38518,-3.7782 -0.21031,-1.29604 -0.44305,-3.66744 -0.51719,-5.26977 -0.12292,-2.65614 -0.0589,-2.98466 0.72525,-3.72133 l 0.86008,-0.808 0.43709,0.81671 c 0.24039,0.44918 0.35403,1.13427 0.25253,1.52241 -0.24967,0.95473 0.67068,0.91783 1.3515,-0.0542 0.76865,-1.0974 2.36729,-1.31192 2.66996,-0.35828 0.28227,0.88935 0.67368,0.94601 1.30235,0.18851 0.79069,-0.95272 1.38261,-0.61906 1.62838,0.91793 0.35395,2.21345 1.30018,2.5239 2.84251,0.93263 1.41571,-1.46064 2.2227,-1.22594 2.2227,0.64642 0,1.49787 1.04898,2.69695 2.41712,2.76298 2.89989,0.13995 5.24038,0.58796 5.82215,1.11446 0.99593,0.9013 1.47406,3.82213 1.03786,6.34019 -1.05216,6.07383 -1.89925,8.33043 -3.86505,10.29624 -1.42851,1.42851 -1.69343,1.57864 -1.69343,0.95967 z m -17.30662,-45.37685 c -0.13458,-0.21776 -0.33606,-1.72894 -0.44773,-3.35817 -0.11167,-1.62924 -0.34611,-3.05067 -0.52098,-3.15875 -0.79459,-0.49108 -0.0494,-8.18372 1.01439,-10.47188 0.70824,-1.52337 1.42462,-1.53628 2.17149,-0.0392 0.45948,0.92107 0.54266,1.96742 0.39167,4.92722 -0.25288,4.95712 -0.9514,11.03161 -1.36218,11.84589 -0.37141,0.73624 -0.88434,0.84109 -1.24666,0.25485 z m -9.10902,-1.38211 c -0.007,-0.55603 -0.22696,-1.39619 -0.48826,-1.86701 -0.3549,-0.63947 -0.39144,-1.53323 -0.14441,-3.53272 0.71517,-5.78862 -0.47155,-11.80713 -2.83376,-14.37155 -0.48056,-0.52171 -0.97056,-1.22542 -1.08889,-1.56381 -0.36889,-1.05489 1.50519,-0.54599 2.87359,0.78033 2.86038,2.77239 4.50886,7.87115 4.45519,13.77988 -0.0568,6.25294 -0.23473,6.89018 -2.10951,7.55505 -0.51519,0.1827 -0.65351,0.0202 -0.66395,-0.78017 z m 22.32512,-7.89595 c -3.03298,-0.30164 -3.93045,-0.54966 -4.62176,-1.18831 -0.5323,-0.49174 -0.37393,-1.61201 -0.26285,-2.05809 0.12772,-0.51296 1.33181,-1.16544 2.69268,-2.62157 4.41815,-4.72741 13.40093,-7.05298 19.46699,-5.03986 3.92128,1.30134 6.22271,2.79598 7.64268,4.96345 2.34585,3.58074 2.37778,5.01921 0.12693,5.71799 -1.01438,0.31493 -22.22647,0.50666 -25.04467,0.22639 z m 21.42085,-2.74995 c 0.35734,-0.93122 -0.89056,-2.69518 -2.75145,-3.88931 -0.99805,-0.64044 -1.8965,-1.16444 -1.99657,-1.16444 -0.10007,0 -0.1115,0.47988 -0.0254,1.0664 0.16352,1.11409 -0.78423,3.39598 -1.41046,3.39598 -0.19928,0 -0.36232,0.1597 -0.36232,0.35488 0,0.19518 1.12954,0.41341 2.51009,0.48496 1.38056,0.0716 2.80819,0.16287 3.17253,0.20293 0.36434,0.0401 0.75296,-0.16307 0.86361,-0.4514 z m -16.55226,-0.74075 c -0.46203,-0.4918 -0.93088,-1.5779 -1.04345,-2.41712 -0.11242,-0.83821 -0.25861,-1.52402 -0.32486,-1.52402 -0.61403,0 -4.51031,3.25093 -4.18843,3.49469 1.436,1.08751 2.22299,1.33956 4.18251,1.33956 l 2.21327,0 z m 6.58527,-3.41501 c 0.1544,-1.58231 -0.72626,-2.30804 -1.98396,-1.63494 -0.63318,0.33887 -0.91699,0.807 -0.91699,1.51253 0,1.1238 0.45206,1.44993 1.85933,1.34138 0.74736,-0.0576 0.95162,-0.29668 1.04162,-1.21897 z m -64.05821,5.7916 c -5.47948,-0.4228 -6.17482,-0.58292 -7.37862,-1.69914 -1.05337,-0.97675 -1.06441,-1.14972 -0.21772,-3.41289 0.52726,-1.40934 6.22621,-4.77483 10.59999,-6.25976 3.51622,-1.1938 9.34708,-0.39787 12.04227,1.64378 0.71584,0.54226 2.08036,1.8022 3.03228,2.79986 0.95191,0.99767 1.90676,1.70516 2.12189,1.5722 0.21513,-0.13296 0.67288,0.18823 1.01722,0.71376 0.59311,0.9052 0.58907,0.98316 -0.0766,1.48072 -1.52327,1.13852 -6.34357,2.72616 -8.88375,2.92599 -6.22235,0.48951 -8.41795,0.53169 -12.25693,0.23548 z m 1.18482,-3.5057 c 0.0461,-0.0367 -0.0152,-0.90364 -0.13638,-1.92644 -0.21715,-1.8335 -0.23662,-1.85739 -1.38539,-1.70003 -1.92817,0.26411 -4.74978,2.80283 -4.16564,3.748 0.15454,0.25005 5.36061,0.1388 5.68741,-0.12153 z m 15.90705,-0.21009 c 0.25061,-0.4055 -2.9807,-3.5316 -3.65044,-3.5316 -0.22566,0 -0.5213,0.54282 -0.65699,1.20627 -0.13569,0.66345 -0.43395,1.43187 -0.66278,1.70761 -0.22885,0.27574 -0.30597,0.61144 -0.1714,0.74602 0.39334,0.39333 4.88855,0.28116 5.14161,-0.1283 z m -10.30137,-2.30445 c 0.24543,-0.24543 0.44624,-1.00906 0.44624,-1.69695 0,-1.18576 -0.0624,-1.24466 -1.20185,-1.13419 -0.91069,0.0883 -1.28472,0.35372 -1.54394,1.09564 -0.18816,0.53852 -0.23826,1.24971 -0.11136,1.58043 0.26991,0.70336 1.76637,0.79962 2.41091,0.15507 z m 41.12263,-9.29967 c -0.76004,-0.24493 -1.36757,-0.81177 -1.76637,-1.64804 -0.65746,-1.37872 -0.81133,-3.10881 -0.27649,-3.10881 0.18226,0 1.09416,-0.63032 2.02644,-1.40072 0.93229,-0.7704 2.4984,-1.63968 3.48026,-1.93174 1.60799,-0.4783 1.69291,-0.55565 0.85552,-0.77928 -1.15019,-0.30717 -0.56727,-0.56737 2.04526,-0.91293 1.02263,-0.13527 2.81625,-0.56611 3.98582,-0.95742 2.09118,-0.69968 6.24048,-0.98381 6.24048,-0.42735 0,0.62355 3.17674,1.60235 6.2413,1.92303 3.36706,0.35234 4.5428,0.64588 4.5428,1.13418 0,0.15777 1.99251,2.00241 2.93359,3.02816 3.05023,3.32467 4.27392,4.21888 3.00748,5.90675 -0.39634,0.52823 -0.88275,0.2725 -1.3281,-0.17285 -0.31656,-0.31657 -0.78546,-0.57558 -1.04199,-0.57558 -0.25653,0 -0.8721,-0.4361 -1.36794,-0.96912 -1.11862,-1.2025 -2.9769,-2.39588 -5.3639,-2.60766 -1.02263,-0.0907 -2.77969,-0.32033 -3.90459,-0.5102 -1.12489,-0.18988 -3.74657,-0.29272 -5.82594,-0.22854 -3.58023,0.11052 -3.95174,0.20027 -7.00665,1.69275 -1.77428,0.86683 -3.53759,1.49455 -3.91848,1.39495 -0.45148,-0.11807 -0.89561,0.12881 -1.27595,0.70929 -0.641,0.97829 -0.6252,0.97523 -2.28255,0.44113 z m -27.65697,-1.21331 c -0.27657,-0.72743 -0.60388,-0.91445 -1.57122,-0.8978 -1.48506,0.0256 -3.9909,-0.51578 -6.24208,-1.34852 -0.92037,-0.34045 -2.7611,-0.69356 -4.09052,-0.78468 -1.32942,-0.0911 -2.7914,-0.24634 -3.24885,-0.34494 -2.26148,-0.48745 -6.09055,-0.58303 -7.30466,-0.18234 -0.72641,0.23974 -2.10984,0.51316 -3.07429,0.6076 -0.96445,0.0944 -3.41983,1.79899 -3.63841,1.96986 -0.52547,0.41079 -4.56761,1.74247 -4.56761,1.41054 0,-0.6011 1.89732,-3.42683 1.11947,-2.80454 -0.66403,0.53123 3.62952,-3.4798 7.91155,-5.72314 1.53395,-0.80362 5.62759,-2.12832 6.1752,-2.13217 0.61733,-0.004 1.27773,-0.36562 1.73807,-0.95084 0.57661,-0.73305 0.95297,-0.891 1.68513,-0.70724 0.51848,0.13013 1.13739,0.47119 1.37535,0.75791 0.49571,0.59729 2.78622,0.70663 3.13058,0.14945 0.39992,-0.64709 1.68052,-0.40427 2.94187,0.5578 0.67037,0.51131 1.49545,0.92966 1.83352,0.92966 1.11971,0 5.40161,2.25116 6.28991,3.30686 0.61204,0.72735 1.24098,1.04862 2.10074,1.07307 0.67495,0.0192 1.31782,0.12553 1.4286,0.23631 0.36217,0.36217 -1.0964,3.72633 -2.06955,4.77336 -1.17015,1.259 -1.47729,1.27558 -1.9228,0.10379 z m -39.16127,53.49696 c -0.11842,-1.14737 -0.46233,-2.8626 -0.76425,-3.81162 -0.30192,-0.94902 -0.86544,-2.8132 -1.25229,-4.14262 -0.66563,-2.28753 -0.76519,-2.41911 -1.85689,-2.45431 -1.45883,-0.047 -2.83757,-1.48458 -3.65448,-3.81035 -0.3343,-0.95174 -0.73459,-1.98146 -0.88955,-2.28825 -0.56088,-1.11046 -1.24581,-5.47678 -1.00785,-6.4249 l 0.24371,-0.97103 1.38553,1.26932 c 1.67508,1.53456 2.27495,1.21532 1.64805,-0.87708 -0.23886,-0.79727 -0.43429,-1.84851 -0.43429,-2.33609 10e-6,-0.56137 -0.48964,-1.29763 -1.33502,-2.00739 -1.03317,-0.86743 -1.43774,-1.57686 -1.78923,-3.13749 -0.2498,-1.10913 -0.65307,-2.08291 -0.89616,-2.16394 -0.2431,-0.081 -0.44199,0.034 -0.44199,0.25553 0,0.22157 -0.33468,0.73753 -0.74373,1.14658 -0.40905,0.40905 -0.74373,1.06854 -0.74373,1.46552 0,0.39698 -0.16734,0.8252 -0.37187,0.95161 -0.46592,0.28796 -0.49931,9.49264 -0.0387,10.67364 0.18322,0.4698 0.54703,1.60722 0.80845,2.52758 0.27051,0.95239 1.56901,3.14275 3.01365,5.08357 1.39609,1.87558 2.53834,3.53027 2.53834,3.67707 0,0.1468 0.68427,1.00925 1.5206,1.91656 0.83633,0.90731 1.85474,2.40506 2.26315,3.32832 1.0836,2.44965 2.18406,4.2159 2.62672,4.2159 0.24788,0 0.3097,-0.75048 0.17185,-2.08613 z m 103.30772,0.22074 c 0.12847,-0.20786 0.37108,-0.29295 0.53914,-0.18908 0.32746,0.20238 3.3617,-2.66189 3.3617,-3.17338 0,-0.16835 0.66936,-1.7483 1.48746,-3.51099 0.81811,-1.76268 1.48746,-3.30782 1.48746,-3.43363 0,-0.12581 0.66574,-1.52178 1.47942,-3.10215 1.63494,-3.17548 2.78047,-6.24817 2.45189,-6.57676 -0.11696,-0.11695 -0.25622,-0.14292 -0.30947,-0.0577 -0.0532,0.0852 -0.63894,0.85632 -1.30153,1.71356 -0.66259,0.85725 -1.20471,1.71472 -1.20471,1.90551 0,0.19078 -0.76474,1.07913 -1.69942,1.97411 -1.83407,1.75614 -2.76297,3.21779 -2.76297,4.34759 0,0.39163 -0.36357,1.17426 -0.80794,1.73918 -0.95404,1.21287 -2.16698,3.5161 -2.16698,4.11485 0,0.23212 -0.23966,0.90793 -0.53256,1.5018 -0.78729,1.59617 -1.10298,3.12502 -0.64531,3.12502 0.21464,0 0.49536,-0.17007 0.62382,-0.37793 z m 6.05322,-21.28324 c 0.70231,-0.84988 0.94388,-3.1277 0.35563,-3.35343 -0.88754,-0.34058 -1.30712,0.2029 -1.58411,2.0519 -0.21509,1.43581 -0.16085,1.76636 0.28987,1.76636 0.30497,0 0.72735,-0.20918 0.93861,-0.46483 z m 7.36739,-3.44192 c 0.49556,-0.53924 0.86283,-1.57741 1.00506,-2.84093 0.23388,-2.07782 0.0445,-2.65003 -1.52322,-4.60287 l -0.85282,-1.06232 -1.14198,0.67459 c -0.88758,0.52431 -1.20646,0.57025 -1.43142,0.20625 -0.18044,-0.29195 -0.6461,-0.37882 -1.23641,-0.23065 -0.7027,0.17636 -1.25574,0.86485 -2.14392,2.66901 -1.41574,2.87577 -1.07902,4.00259 0.55564,1.85944 1.26103,-1.65329 2.77042,-1.78122 4.19601,-0.35562 0.90976,0.90975 0.95052,1.11043 0.73659,3.62569 -0.22007,2.5874 -0.20836,2.63783 0.41454,1.78491 0.35255,-0.48275 0.99242,-1.26012 1.42193,-1.7275 z M 285.28672,434.63098 c -0.12356,-0.12357 -0.21145,0.0961 -0.19531,0.48807 0.0179,0.4332 0.10596,0.52132 0.22467,0.22467 0.10742,-0.26844 0.0942,-0.58918 -0.0293,-0.71274 z m 4.44557,-42.08147 c 0.11245,-0.11245 0.33333,0.004 0.49084,0.25894 0.18829,0.30465 0.42087,0.0252 0.67898,-0.81575 0.35288,-1.14976 0.31529,-1.29934 -0.37161,-1.47897 -0.84086,-0.21989 -1.34236,0.27024 -2.50125,2.44447 -0.5436,1.01986 -0.64602,1.60025 -0.39375,2.2312 0.18754,0.46902 0.46137,1.18745 0.60853,1.59651 0.19889,0.55285 0.39797,0.13089 0.77569,-1.64411 0.27947,-1.31332 0.60013,-2.47984 0.71257,-2.59229 z m 4.69369,-0.50489 c 0.0754,-0.5298 0.35764,-0.81775 0.7696,-0.78505 0.50171,0.0398 0.65058,-0.23672 0.65058,-1.20856 0,-1.40094 -0.48275,-1.58757 -1.77153,-0.68487 -0.6315,0.44232 -0.7854,0.85073 -0.66564,1.76636 0.0857,0.65506 0.16708,1.31652 0.18088,1.46992 0.0588,0.65321 0.7273,0.20722 0.83611,-0.5578 z m 20.34949,-12.16678 c -0.77731,-0.0155 -2.7379,0.97108 -3.31736,1.66929 -0.37603,0.45308 -0.33048,0.55008 0.25837,0.55008 0.39318,0 0.89907,-0.18419 1.12418,-0.4093 0.29783,-0.29782 0.47353,-0.20694 0.64511,0.33367 0.15752,0.4963 0.46449,0.68316 0.92464,0.56283 2.45686,2.64534 2.13571,-2.62721 0.36506,-2.70657 z m -14.46692,7.61142 c 0,-1.51677 -0.20239,-1.59039 -1.36626,-0.49699 l -0.85638,0.80453 0.83242,0.46053 c 1.26931,0.70226 1.39022,0.63545 1.39022,-0.76807 z m 79.57924,0.41523 c 0,-0.28293 -0.37652,-0.61533 -0.8367,-0.73865 -1.33234,-0.35705 -1.75804,-0.27352 -1.53732,0.30167 0.17757,0.46274 0.53935,0.61828 2.09512,0.90077 0.15339,0.0279 0.2789,-0.18085 0.2789,-0.46379 z m -72.27089,-3.00072 c 0.34665,-0.58699 0.5332,-0.63956 0.97329,-0.27432 0.84446,0.70083 1.49173,-0.26157 0.80634,-1.1989 -0.50373,-0.68889 -0.56253,-0.69018 -1.99562,-0.0439 -1.35344,0.61032 -1.45999,0.76266 -1.27738,1.82646 0.33807,1.96948 0.59798,2.38411 0.84405,1.34653 0.12126,-0.51131 0.41346,-1.25643 0.64932,-1.65582 z m 12.82458,1.16092 c -0.24029,-0.28954 -0.33161,-0.80078 -0.20294,-1.13609 0.26836,-0.69934 -0.50227,-1.81576 -1.02876,-1.49037 -0.3775,0.23331 -0.0788,2.12385 0.51422,3.25425 0.25629,0.48856 0.47822,0.57479 0.75835,0.29466 0.28013,-0.28012 0.26817,-0.55009 -0.0409,-0.92245 z m 11.81568,-2.10815 c -0.0301,-3.00828 -0.32465,-3.41374 -2.49376,-3.43242 -1.22338,-0.0105 -1.30595,0.21119 -0.65705,1.76424 0.31877,0.76292 0.57958,1.67694 0.57958,2.03115 0,0.35421 0.43433,1.11267 0.96517,1.68545 1.2283,1.32536 1.6346,0.80715 1.60606,-2.04842 z m 35.85895,-1.58043 c -0.23996,-0.38929 -2.35921,-0.35083 -2.35921,0.0428 0,0.17695 0.36946,0.79142 0.82103,1.3655 l 0.82104,1.04378 0.44453,-1.0866 c 0.24449,-0.59762 0.36717,-1.2121 0.27261,-1.36549 z m -50.32988,-0.62882 c -31.64055,128.1395 -15.82027,64.06975 0,0 z"
       id="path4000"
       inkscape:connector-curvature="0"
       sodipodi:nodetypes="sssssssssscscsssscssssssssssssssssssssssssssssssscssssssssssssssssssssssssscssssssssssscsssssssssssssssssssccssssssssssssssssssssssssssssssssssssscsssssssssssssssscssscsssssssssssscsssscsscccsscsssssssssssssssssssssssscsssssscscsssssssssssssssssssscssssssssssssssssssscsscssssscssssssssscsssssssssssssscsccssssssssssssssssssssssssssssssssssssssssssscsssssssssssssssscscssccsssssssscssssssssssscscssssscsccsssssssssssscssscsccscsssssssssssssssscsssssscsssssscssscsssssssssssscsssssssssssssssssssssssscsssssccssssscssscssssscssssssccssscsssssssssssssscsssssscsssssssssssssssssssscsssssssssscsssssssssssscsssscssscsssccssssscssssssssssssssssssssssssssssssssssscsssssssssssssssssscssssssssssssssssssscssssccssssssssssssssssscssssssssscccccscsssssssssssssscssssccsscssssssssssssssssssssssssssssscsscc"
       inkscape:export-xdpi="192"
       inkscape:export-ydpi="192"
       inkscape:export-filename="C:\Users\Jules\Google Drive\Projets\Design\DessinTheo\theo3.png" />
    <g
       id="g3019"
       transform="translate(-685.21484,-77.999789)" />
  </g>
</svg>
